<?xml version="1.0" encoding="UTF-8" standalone="no"?>
<!DOCTYPE svg PUBLIC "-//W3C//DTD SVG 1.1//EN" "http://www.w3.org/Graphics/SVG/1.1/DTD/svg11.dtd">
<svg width="100%" height="100%" viewBox="0 0 404 539" version="1.1" xmlns="http://www.w3.org/2000/svg" xmlns:xlink="http://www.w3.org/1999/xlink" xml:space="preserve" xmlns:serif="http://www.serif.com/" style="fill-rule:evenodd;clip-rule:evenodd;stroke-linecap:round;stroke-linejoin:round;stroke-miterlimit:1.5;">
    <g id="Artboard1" transform="matrix(1,0,0,1,-426.842,-990.452)">
        <rect x="426.842" y="990.452" width="403.82" height="538.51" style="fill:none;"/>
        <g transform="matrix(-1,0,0,1,2222.27,761.34)">
            <path d="M1433.28,428.231C1434.65,411.022 1432.22,386.804 1434.36,369.754C1436.11,355.78 1446.46,343.217 1451.77,330.475C1458.54,314.228 1475.03,294.75 1491.27,282.277C1503.94,272.543 1517.88,263.756 1532.81,261.094C1555.17,257.108 1559,255.943 1581.07,250.425C1592.22,247.639 1597.41,255.326 1608.3,251.722C1612.42,250.358 1617.35,248.546 1621.83,249.285C1634.97,251.456 1648.67,257.291 1661.49,261.283C1670.15,263.983 1678.9,263.864 1686.26,269.576C1697.12,278.003 1707.24,280.199 1713.51,292.006C1721.19,306.461 1733.88,311.867 1740.28,327.08C1753.01,357.341 1763.33,391.784 1770.63,423.825C1780.83,468.576 1781.49,524.92 1778.94,571.106C1778.01,587.884 1775.13,604.448 1775.13,621.309C1775.13,623.919 1777.71,662.32 1775.91,664.117C1775.47,664.558 1771.61,662.458 1770.92,662.383C1767.87,662.053 1764.57,662.383 1761.51,662.383C1746.38,662.383 1729.2,647.171 1714.1,648.569C1707.16,649.211 1700.88,653.693 1693.97,654.637C1680.39,656.493 1664.96,652.561 1651.66,655.885C1644.75,657.614 1638.76,661.385 1631.43,662.296C1598.43,666.393 1564.36,664.215 1531.05,664.215L1458.09,664.215C1451.27,664.215 1443.71,664.267 1437.21,665.697C1435.68,666.033 1433.38,667.73 1432.09,668.748C1431.81,668.975 1429.36,670.967 1429.31,670.883C1420.51,656.478 1421.83,638.851 1420.02,622.769C1417.49,600.478 1421.83,579.673 1424.32,557.923C1425.3,549.324 1424.85,520.769 1424.62,512.143C1424.13,494.178 1431.57,449.735 1433.28,428.231Z" style="fill:rgb(37,0,22);"/>
            <g transform="matrix(1,0,0,1,6.27074,29.3229)">
                <path d="M1427.65,643.495C1429.12,642.507 1431.31,641.689 1433.2,640.876C1436.63,639.398 1440.16,638.121 1443.74,636.98C1447.91,635.651 1452.15,634.508 1456.37,633.45C1485.3,626.212 1515.98,628.183 1545.58,628.183" style="fill:none;stroke:black;stroke-width:14.58px;"/>
            </g>
            <g transform="matrix(1,0,0,1,6.27074,29.3229)">
                <path d="M1644.17,628.656C1649.84,617.314 1642.27,626.874 1652.93,624.783C1675.49,620.359 1701.01,622.576 1719.64,624.399C1743.33,626.716 1749.61,634.089 1763.53,634.984C1768.81,619.006 1777.11,573.844 1776.51,543.145C1776.08,521.369 1776.73,496.034 1775.08,474.252C1772.47,439.852 1769.67,411.913 1762.43,377.851C1760.15,367.14 1748.66,329.727 1744.53,320.913C1729.42,288.725 1717.5,272.257 1706.82,262.452C1672.07,230.557 1636.81,223.471 1592.51,223.471C1557.21,223.471 1524.83,229.96 1495.81,250.659C1470.79,268.507 1463.36,278.908 1449.13,304.935C1438.78,323.859 1430.01,340.709 1426.04,360.35" style="fill:none;stroke:black;stroke-width:14.58px;"/>
            </g>
            <g transform="matrix(0.942514,0,0,0.848585,88.518,100.198)">
                <path d="M1545.56,643.483C1551.35,659.47 1565.82,671.651 1575.37,685.503C1578.84,690.529 1581.22,697.542 1587.97,698.525C1590.01,698.82 1591.47,697.123 1592.76,695.83C1596.06,692.537 1598.41,688.564 1600.94,684.684C1603.64,680.529 1607.28,677.077 1609.92,672.969C1613.32,667.683 1616.03,661.993 1619.27,656.605C1621.87,652.267 1625.73,644.66 1631.02,642.901C1633.98,641.916 1637.27,641.83 1640,640.113C1641.35,639.264 1644.02,636.997 1645.77,637.511C1652.79,639.566 1659.73,643.945 1666.68,646.507C1675.01,649.577 1684.4,651.831 1692.12,656.333C1701.98,662.091 1709.65,670.881 1716.93,679.388C1721.49,684.719 1727.24,688.462 1730.65,694.793C1735.14,703.116 1737.23,712.789 1741.08,721.426C1744.27,728.607 1748.39,735.403 1752.21,742.223C1754.3,745.954 1754.95,751.068 1756.32,755.317C1763.95,779.018 1447.43,785.651 1435.8,766.563C1435.34,765.812 1433.98,766.507 1433.13,766.67C1433.04,766.687 1431.35,767.011 1431.34,766.969C1429.6,760.797 1432.53,752.432 1434.15,746.6C1437.02,736.316 1438.32,726.52 1443.8,717.145C1449.68,707.11 1454.46,694.98 1462.31,686.284C1470.95,676.717 1481.64,671.084 1491.98,663.81C1498.16,659.461 1503.33,654.128 1510.15,650.705C1513.41,649.073 1517.39,649.305 1520.73,647.798C1523.9,646.368 1526.28,643.545 1529.38,641.995C1532.64,640.357 1536.86,641.164 1540.36,640.956C1543.49,640.771 1546.31,639.766 1549.45,639.766" style="fill:rgb(172,202,161);"/>
            </g>
            <g transform="matrix(-1,0,0,1,2219.08,-756.493)">
                <path d="M476.026,1200.51C476.074,1200.09 476.451,1199.8 476.868,1199.84C483.552,1200.79 487.504,1208.73 487.675,1211.46C488.455,1223.88 495.955,1309.85 497.885,1323.78C501.117,1347.1 507.143,1366.45 505.381,1375.46C503.984,1382.6 495.318,1385.69 489.132,1389.93C486.535,1391.72 478.493,1396.41 475.171,1397.69C474.958,1397.75 474.73,1397.71 474.546,1397.59C474.362,1397.47 474.241,1397.27 474.214,1397.05C473.328,1389.66 467.486,1338.82 468.297,1294.59C468.867,1263.5 475.216,1207.54 476.026,1200.51Z" style="fill:rgb(109,41,0);"/>
            </g>
            <g transform="matrix(-0.99985,0.0173458,0.0173458,0.99985,2195.33,-759.098)">
                <path d="M610.648,1050.89C610.81,1050.75 611.021,1050.69 611.23,1050.72C611.439,1050.74 611.628,1050.86 611.752,1051.03C613.642,1054.83 611.047,1064.66 609.968,1066.85C605.296,1076.33 595.345,1087.04 589.853,1092.53C573.605,1108.78 566.417,1113.41 544.959,1125.27C535.649,1130.42 520.479,1137.16 510.115,1139.38C504.814,1140.51 493.142,1141.78 487.615,1139.74C487.369,1139.61 487.21,1139.36 487.201,1139.09C487.192,1138.81 487.334,1138.55 487.571,1138.41C494.615,1134.24 530.179,1113.09 547.931,1100.47C567.252,1086.75 605.258,1055.35 610.648,1050.89Z" style="fill:rgb(109,41,0);"/>
            </g>
            <g transform="matrix(1,0,0,1,4.08143,27.827)">
                <path d="M1440.87,352.926C1442.88,340.87 1450.1,342.056 1457.46,332.595C1465.22,322.631 1476.49,310.44 1485.48,301.448C1499.41,287.522 1513.73,281.87 1531.25,273.112C1541.29,268.094 1547.86,275.146 1558.17,271.588C1562.59,270.062 1568.7,267.218 1572.79,271.43C1575.06,273.77 1578.04,271.441 1578.55,274.495C1579.89,282.433 1578.61,289.63 1582.42,297.213C1588.2,308.71 1596.85,318.593 1603.36,329.573C1610.08,340.926 1615.34,339.358 1626.78,346.528C1639.85,354.717 1651.17,361.353 1665.48,366.692C1675.12,370.288 1684.37,375.33 1694.39,378.012C1701.71,379.971 1709.25,382.783 1716.77,383.807C1718.24,384.007 1723.39,383.605 1724.43,384.672C1725.95,386.237 1728.21,389.116 1729.02,390.713C1734.33,401.157 1730.83,431.766 1719.91,438.886C1716.61,441.039 1710.67,429.726 1707.77,431.778C1703.7,434.65 1710.79,435.736 1710.05,440.675C1708.97,447.874 1704.53,454.203 1703.61,461.615C1703.13,465.458 1704.56,470.723 1703.09,474.306C1700.03,481.77 1695.41,473.06 1691.44,480.169C1688.49,485.467 1688.26,490.76 1686.03,496.086C1682.85,503.665 1676.63,510.559 1672.58,517.459C1664.71,530.859 1654.08,541.631 1641.8,551.183C1637.79,554.306 1633.73,557.902 1629.76,561.047C1628.49,562.052 1627.82,596.242 1628.69,598.722C1629.02,599.658 1628.18,614.616 1622.67,623.286C1617.02,632.198 1612.17,631.975 1607.49,640.076C1598.54,655.569 1598.74,660.692 1586.5,659.342C1575.18,658.094 1554.92,640.69 1546.12,622.286C1538.26,605.863 1541.31,588.242 1539.99,586.914C1532.63,579.481 1532.58,568.608 1522.93,565.383C1515.23,562.81 1502.97,553.198 1496.08,548.502C1475.71,534.615 1463.73,510.689 1453.69,488.203C1451.26,482.762 1444.18,458.816 1442.75,444.449C1441.2,428.82 1437.28,416.351 1439.68,387.262C1441.82,361.42 1440.87,352.926 1440.87,352.926Z" style="fill:rgb(247,200,171);"/>
            </g>
            <g transform="matrix(0.963057,0,0,0.99582,58.3131,38.0654)">
                <g transform="matrix(1.10181,0,0,1.23297,-162.866,-130.969)">
                    <path d="M1549.5,516.672C1548.83,515.558 1548.47,514.334 1548.11,513.089C1547.99,512.657 1547.88,512.221 1547.76,511.787C1547.35,510.315 1546.41,508.188 1548.26,507.229C1548.6,507.048 1549.04,506.951 1549.43,506.894C1550.05,506.803 1550.69,506.789 1551.32,506.777C1552.16,506.761 1553,506.777 1553.85,506.777L1558.81,506.777C1563.37,506.777 1567.94,506.664 1572.49,506.924C1574.71,507.051 1576.91,507.476 1579.12,507.747C1581.07,507.987 1583.03,508.185 1584.96,508.551C1585.99,508.746 1587.07,508.851 1588.02,509.322C1588.88,509.742 1588.95,510.719 1589.07,511.574C1589.2,512.54 1589.32,513.491 1589.35,514.466C1589.38,515.456 1589.65,516.439 1589.95,517.381C1590.09,517.818 1590.49,518.27 1590.39,518.758C1590.26,519.421 1588.86,519.573 1588.37,519.637C1588.13,519.668 1587.89,519.691 1587.65,519.709C1585.92,519.839 1584.18,519.821 1582.45,519.605C1581.09,519.435 1579.75,519.071 1578.38,518.969C1576.39,518.822 1574.33,518.722 1572.34,518.887C1570.37,519.051 1568.42,519.415 1566.44,519.538C1563.84,519.7 1561.02,519.884 1558.43,519.531C1555.96,519.195 1553.53,518.613 1551.07,518.25C1550.13,518.111 1549.11,517.876 1548.16,517.876" style="fill:white;"/>
                </g>
                <g transform="matrix(1.08847,0,0,1.07866,-140.105,-33.7538)">
                    <path d="M1541.2,487.624C1542.63,502.114 1563.38,516.235 1569.22,516.556C1572.25,516.722 1593.35,496.787 1593.35,487.798L1541.2,487.624Z" style="fill:none;stroke:black;stroke-width:13.74px;"/>
                </g>
                <g transform="matrix(1,0,0,1,-3.55878,-10.2349)">
                    <path d="M1547.65,515.64C1556.15,515.64 1586.08,515.002 1586.21,515.213C1586.41,515.535 1586.16,516.586 1586.11,516.917C1585.86,518.51 1587.46,521.199 1587.09,522.766C1586.79,524.043 1586.44,525.294 1586.12,526.56C1586.03,526.935 1586.11,527.473 1585.81,527.772C1584.94,528.634 1583.88,528.81 1582.74,529.187C1578.54,530.579 1574.81,530.874 1570.35,530.874C1568.83,530.874 1566.95,531.152 1565.43,530.823C1562.6,530.209 1559.76,529.583 1556.94,528.936C1556.12,528.749 1555.06,528.12 1554.25,528.12"/>
                </g>
            </g>
            <g transform="matrix(0.669928,0,0,0.601653,533.973,198.787)">
                <path d="M1570.83,366.465C1578.52,347.32 1586.29,336.321 1607.04,338.216C1650.32,342.17 1682.32,373.329 1687.14,408.796C1687.56,411.871 1687.26,422.322 1700.67,416.995" style="fill:none;stroke:black;stroke-width:22.9px;"/>
            </g>
            <g transform="matrix(0.625822,0,0,0.392193,603.685,270.198)">
                <path d="M1572.3,371.327C1567.14,384.34 1565.49,430.839 1568.03,439.553C1576.14,467.364 1589.94,477.912 1604.53,451.184C1614.97,432.052 1612.96,405.044 1609.52,384.325C1608.51,378.241 1599.46,343.707 1597.27,343.707" style="stroke:black;stroke-width:27.92px;"/>
            </g>
            <g transform="matrix(0.664634,-0.0763885,0.0857892,0.429605,507.518,383.453)">
                <path d="M1583.17,365.122C1577.45,364.839 1572.99,382.077 1572.48,392.789C1572.19,398.636 1576.46,419.453 1583.98,409.36C1584.84,408.207 1585.56,406.731 1586.13,405.425C1590.13,396.291 1591.16,385.996 1588.88,376.265C1588.25,373.561 1586.15,365.27 1583.17,365.122Z" style="fill:white;"/>
            </g>
            <g transform="matrix(0.795952,0,0,0.613664,352.451,198.381)">
                <path d="M1490.88,336.13C1490.88,356.174 1489.05,379.43 1482.39,398.335C1478.1,410.529 1472.09,422.593 1463.71,432.5C1461.85,434.693 1456.23,444.779 1456.14,445.274C1452.49,463.755 1462.91,479.68 1481.82,479.68" style="fill:none;stroke:black;stroke-width:20.52px;"/>
            </g>
            <g transform="matrix(0.930672,0,0,0.794914,118.721,115.068)">
                <path d="M1710.58,435.559C1710.46,482.016 1670.99,547.953 1629.56,588.516C1613.02,604.711 1586.33,622.068 1567.7,623.853C1553.8,625.186 1526.32,607.927 1512.27,597.652C1483.04,576.286 1437.46,515.278 1432.06,477.967" style="fill:none;stroke:black;stroke-width:16.85px;"/>
            </g>
            <g transform="matrix(0.99438,0,0,0.823841,15.1083,103.667)">
                <path d="M1572.41,237.587C1577.7,256.074 1580.96,275.201 1591.14,291.924C1620.47,340.087 1681.54,372.09 1737.72,372.09" style="fill:none;stroke:black;stroke-width:15.97px;"/>
            </g>
            <g transform="matrix(0.704815,0,0,0.737785,431.112,143.226)">
                <path d="M1451.45,367.034C1455.37,369.827 1459.42,376.389 1459.98,381.52C1460.97,390.621 1461.86,401.425 1457.63,413.665C1455.97,418.479 1449.66,423.964 1443.74,423.37C1436.07,422.599 1430.75,413.649 1429.16,406.986C1426.55,396 1429.3,382.779 1432.67,372.213C1438.11,355.201 1447.74,364.396 1451.45,367.034Z" style="stroke:black;stroke-width:20.21px;"/>
            </g>
            <g transform="matrix(0.953598,0.227298,-0.231862,0.972749,173.831,-338.619)">
                <path d="M1715.55,422.221C1725.42,426.111 1734.09,418.218 1736,408.716C1738.41,396.659 1733.85,380.681 1725.28,371.976" style="fill:none;stroke:black;stroke-width:14.73px;"/>
            </g>
            <g transform="matrix(1.10925,0,0,0.868268,-150.1,95.7977)">
                <path d="M1416.67,399.501C1423.29,398.866 1423.28,384.803 1427.28,372.9C1428.55,369.133 1429.91,364.489 1432.69,362.357C1435.31,360.345 1438.89,357.757 1444.94,357.55C1451.12,357.337 1457.43,358.059 1462.94,361.124C1468.99,364.481 1476.9,370.896 1480.77,380.162C1483.66,387.097 1486.68,393.041 1486.68,400.636" style="fill:none;stroke:black;stroke-width:14.64px;"/>
            </g>
            <g transform="matrix(0.650938,-0.043983,0.0617713,0.413865,392.159,339.885)">
                <path d="M1583.17,365.122C1577.45,364.839 1574.05,375.279 1572.26,388.45C1570.92,398.322 1575.72,417.568 1583.23,407.476C1584.09,406.323 1584.82,404.847 1585.39,403.54C1589.39,394.406 1590.42,384.112 1588.14,374.381C1587.51,371.677 1586.15,365.27 1583.17,365.122Z" style="fill:white;"/>
            </g>
            <g transform="matrix(1,0,0,0.758434,6.27074,119.207)">
                <path d="M1570.19,235.73C1558.07,235.73 1543.35,241.749 1532.67,246.775C1518.32,253.528 1509.2,257.158 1496.94,267.372C1486.33,276.214 1472,290.734 1463.79,301.758C1455.84,312.435 1448.06,323.427 1440.42,334.297C1437.47,338.493 1436.29,343.643 1432.68,347.247" style="fill:none;stroke:black;stroke-width:16.43px;"/>
            </g>
            <path d="M1542.2,601.71C1544.4,614.768 1544,623.929 1544,636.932" style="fill:none;stroke:black;stroke-width:14.58px;"/>
            <path d="M1544.55,638.873C1549.68,656.756 1559.79,672.582 1572.31,684.906C1575.48,688.018 1585.86,693.075 1590.97,693.075" style="fill:none;stroke:black;stroke-width:14.58px;"/>
            <path d="M1592.36,692.699C1601.67,688.898 1612.8,678.297 1617.6,671.674C1625.63,660.605 1629.18,655.288 1631.69,641.144" style="fill:none;stroke:black;stroke-width:14.58px;"/>
            <g transform="matrix(0.942514,0,0,0.848585,88.518,100.198)">
                <path d="M1544.08,640.767C1545.66,640.767 1539.58,642.657 1538.88,642.877C1534.9,644.125 1531.1,645.727 1527.17,647.103C1514.36,651.594 1502.81,657.403 1491.7,665.243C1467.09,682.601 1452.25,709.502 1441.76,737.097C1438.88,744.681 1431.24,756.373 1431.24,764.618" style="fill:none;stroke:black;stroke-width:16.26px;"/>
            </g>
            <g transform="matrix(0.942514,0,0,0.848585,88.518,100.198)">
                <path d="M1640.66,636.37C1681.41,647.487 1714.78,655.43 1736.53,695.746C1743.43,708.546 1749.51,722.525 1754.49,736.19C1756.1,740.623 1757.47,744.693 1758.56,749.013C1758.96,750.582 1758.88,752.501 1759.48,753.991C1759.54,754.128 1759.8,756.358 1760.12,755.837C1761.35,753.862 1758.9,751.347 1758.11,749.162" style="fill:none;stroke:black;stroke-width:16.26px;"/>
            </g>
            <g transform="matrix(1,0,0,1,6.27074,29.3229)">
                <path d="M1427,642.458C1422.5,633.839 1419.93,625.943 1418.61,619.197C1417.08,611.392 1416.79,602.953 1416.55,595.029C1415.74,569.084 1415.75,542.532 1416.94,516.606C1418.03,492.774 1421.69,469.245 1424.41,456.381" style="fill:none;stroke:black;stroke-width:14.58px;"/>
            </g>
            <g transform="matrix(0.96617,-0.0608897,0.0589391,0.998145,26.0997,151.224)">
                <path d="M1406.88,351.203C1421.23,331.786 1446.52,320.006 1470.88,320.59C1475.39,320.698 1480.13,321.807 1484.42,323.12C1487.55,324.077 1490.66,325.874 1493.98,325.874" style="fill:none;stroke:black;stroke-width:14.85px;"/>
            </g>
            <g transform="matrix(0.967466,-0.0321362,0.0311067,0.999483,43.0315,105.103)">
                <path d="M1588.39,328.67C1593.3,326.203 1601.35,327.279 1606.53,327.392C1620.13,327.686 1635.55,331.067 1647.36,338.14C1652.6,341.278 1656.54,345.79 1660.81,350.053C1664.6,353.841 1668.31,357.705 1672.1,361.493C1673.09,362.478 1675.43,364.95 1675.43,366.501" style="fill:none;stroke:black;stroke-width:14.83px;"/>
            </g>
            <path d="M1634.04,586.836C1632.91,590.166 1632.2,607.372 1632.42,611.927C1633.09,625.522 1632.94,626.092 1632.94,639.714" style="fill:none;stroke:black;stroke-width:14.58px;"/>
        </g>
    </g>
</svg>
